<svg width="167" height="26" viewBox="0 0 167 26" fill="none" xmlns="http://www.w3.org/2000/svg">
<g filter="url(#filter0_d_4109_367)">
<path d="M14.728 4.51199V16.8H9.424V4.51199H4V0.287987H20.128V4.51199H14.728ZM22.5443 0.287987H36.8243V4.24799H27.8483V6.52799H35.5283V10.32H27.8483V12.84H36.9923V16.8H22.5443V0.287987ZM47.7366 -1.33514e-05C50.1846 -1.33514e-05 52.1206 0.615987 53.5446 1.84799C54.9686 3.06399 55.6806 4.80799 55.6806 7.07999H50.6166C50.6166 6.11999 50.3606 5.35999 49.8486 4.79999C49.3526 4.23999 48.6406 3.95999 47.7126 3.95999C46.6406 3.95999 45.8486 4.29599 45.3366 4.96799C44.8406 5.63999 44.5926 6.57599 44.5926 7.77599V9.31199C44.5926 10.496 44.8406 11.432 45.3366 12.12C45.8486 12.792 46.6246 13.128 47.6646 13.128C48.6886 13.128 49.4646 12.864 49.9926 12.336C50.5206 11.808 50.7846 11.064 50.7846 10.104H55.6806C55.6806 12.36 54.9846 14.088 53.5926 15.288C52.2166 16.488 50.2646 17.088 47.7366 17.088C44.9206 17.088 42.7846 16.368 41.3286 14.928C39.8886 13.488 39.1686 11.36 39.1686 8.54399C39.1686 5.72799 39.8886 3.59999 41.3286 2.15999C42.7846 0.719987 44.9206 -1.33514e-05 47.7366 -1.33514e-05ZM69.6803 16.8V10.536H63.8483V16.8H58.5443V0.287987H63.8483V6.31199H69.6803V0.287987H74.9843V16.8H69.6803ZM98.3367 16.8L91.4007 8.78399V16.8H86.5287V0.287987H91.1607L98.0967 8.42399V0.287987H102.969V16.8H98.3367ZM106.521 0.287987H120.801V4.24799H111.825V6.52799H119.505V10.32H111.825V12.84H120.969V16.8H106.521V0.287987ZM136.249 16.8L134.113 6.74399H134.017L131.881 16.8H126.049L122.185 0.287987H127.705L129.601 9.64799H129.697L131.569 0.287987H136.801L138.793 9.64799H138.889L140.665 0.287987H145.945L142.081 16.8H136.249ZM154.777 -1.33514e-05C156.889 -1.33514e-05 158.625 0.431987 159.985 1.29599C161.345 2.14399 162.041 3.40799 162.073 5.08799V5.37599H157.105V5.27999C157.105 4.79999 156.929 4.39999 156.577 4.07999C156.225 3.75999 155.689 3.59999 154.969 3.59999C154.265 3.59999 153.721 3.70399 153.337 3.91199C152.969 4.11999 152.785 4.37599 152.785 4.67999C152.785 5.11199 153.041 5.43199 153.553 5.63999C154.065 5.84799 154.889 6.06399 156.025 6.28799C157.353 6.55999 158.441 6.84799 159.289 7.15199C160.153 7.43999 160.905 7.91999 161.545 8.59199C162.185 9.26399 162.513 10.176 162.529 11.328C162.529 13.28 161.865 14.728 160.537 15.672C159.225 16.616 157.465 17.088 155.257 17.088C152.681 17.088 150.673 16.656 149.233 15.792C147.809 14.928 147.097 13.4 147.097 11.208H152.113C152.113 12.04 152.329 12.6 152.761 12.888C153.193 13.16 153.865 13.296 154.777 13.296C155.449 13.296 156.001 13.224 156.433 13.08C156.881 12.936 157.105 12.64 157.105 12.192C157.105 11.792 156.857 11.496 156.361 11.304C155.881 11.096 155.089 10.88 153.985 10.656C152.641 10.368 151.529 10.072 150.649 9.76799C149.769 9.44799 149.001 8.92799 148.345 8.20799C147.689 7.48799 147.361 6.51199 147.361 5.27999C147.361 3.47199 148.057 2.14399 149.449 1.29599C150.857 0.431987 152.633 -1.33514e-05 154.777 -1.33514e-05Z" fill="#60A5FA"/>
</g>
<defs>
<filter id="filter0_d_4109_367" x="0" y="0" width="166.529" height="25.088" filterUnits="userSpaceOnUse" color-interpolation-filters="sRGB">
<feFlood flood-opacity="0" result="BackgroundImageFix"/>
<feColorMatrix in="SourceAlpha" type="matrix" values="0 0 0 0 0 0 0 0 0 0 0 0 0 0 0 0 0 0 127 0" result="hardAlpha"/>
<feOffset dy="4"/>
<feGaussianBlur stdDeviation="2"/>
<feComposite in2="hardAlpha" operator="out"/>
<feColorMatrix type="matrix" values="0 0 0 0 0 0 0 0 0 0 0 0 0 0 0 0 0 0 0.25 0"/>
<feBlend mode="normal" in2="BackgroundImageFix" result="effect1_dropShadow_4109_367"/>
<feBlend mode="normal" in="SourceGraphic" in2="effect1_dropShadow_4109_367" result="shape"/>
</filter>
</defs>
</svg>
